<svg height="350" viewBox="0 0 318 350" width="318" xmlns="http://www.w3.org/2000/svg" xmlns:xlink="http://www.w3.org/1999/xlink"><linearGradient id="a" x1="-83.234806%" x2="140.023112%" y1="106.401351%" y2="-13.203%"><stop offset="0" stop-color="#f8fafc"/><stop offset=".217972142" stop-color="#f8fafc"/><stop offset="1" stop-color="#bbdbf5"/><stop offset="1" stop-color="#b9daf5"/></linearGradient><g fill="none" fill-rule="evenodd"><path d="m159.9 41.23566-130.4 64.980655v162.455569l130.4 64.980655 130.4-64.980655v-162.455569z" stroke="#b9daf5"/><path d="m129.8 186.334516v163.336291l-129.8-65.334516v-163.336291z" fill="url(#a)"/><path d="m317.3 186.64261-128.8-64.831169v162.216756l128.8 64.831169z" stroke="#338cd6" transform="matrix(1 0 0 -1 0 470.670808)"/><path d="m159.9 41.2359725-129.7814607 64.8540895 129.7814607 64.85409 129.781461-64.85409z" stroke="#b9daf5"/><path d="m159.9.55895388-129.7814607 64.85408962 129.7814607 64.8540895 129.781461-64.8540895z" stroke="#338cd6"/><g fill-rule="nonzero" stroke-linecap="square"><path d="m160.175 170.953416v161.608696" stroke="#b9daf5"/><g stroke="#c7cfda" stroke-dasharray="2 4"><path d="m160.358333 130.484509v35.313973"/><path d="m290.158333 68.178117v35.313973"/><path d="m133.55 185.742236 26.4-13.192547"/><path d="m133.55 348.742236 26.4-13.192547"/><path d="m292.35 283.586957 26.4-13.192547" transform="matrix(1 0 0 -1 0 553.981366)"/><path d="m162.55 348.742236 26.4-13.192547" transform="matrix(1 0 0 -1 0 684.291926)"/><path d="m291.55 119.742236 26.4-13.192547" transform="matrix(1 0 0 -1 0 226.291926)"/><path d="m162.55 185.742236 26.4-13.192547" transform="matrix(1 0 0 -1 0 358.291926)"/></g></g></g></svg>